<svg xmlns="http://www.w3.org/2000/svg" version="1.1" xmlns:xlink="http://www.w3.org/1999/xlink" xmlns:svgjs="http://svgjs.dev/svgjs" width="1440" height="560" preserveAspectRatio="none" viewBox="0 0 1440 560"><g mask="url(&quot;#SvgjsMask1030&quot;)" fill="none"><path d="M-96.43 397.8L-96.43 397.8" stroke="rgba(8, 95, 158, 0.24)" stroke-width="1.5"></path><path d="M-96.43 397.8L60.31 369.06" stroke="rgba(8, 95, 158, 0.24)" stroke-width="1.5"></path><path d="M-96.43 397.8L-94.86 560.38" stroke="rgba(8, 95, 158, 0.24)" stroke-width="1.5"></path><path d="M-96.43 397.8L41.56 559.22" stroke="rgba(8, 95, 158, 0.24)" stroke-width="1.5"></path><path d="M-96.43 397.8L39.14 643.41" stroke="rgba(8, 95, 158, 0.24)" stroke-width="1.5"></path><path d="M-96.43 397.8L-40.9 706.4" stroke="rgba(8, 95, 158, 0.24)" stroke-width="1.5"></path><path d="M-96.43 397.8L211.76 338.47" stroke="rgba(8, 95, 158, 0.24)" stroke-width="1.5"></path><path d="M-94.86 560.38L-94.86 560.38" stroke="rgba(8, 95, 158, 0.24)" stroke-width="1.5"></path><path d="M-94.86 560.38L41.56 559.22" stroke="rgba(8, 95, 158, 0.24)" stroke-width="1.5"></path><path d="M-94.86 560.38L-40.9 706.4" stroke="rgba(8, 95, 158, 0.24)" stroke-width="1.5"></path><path d="M-94.86 560.38L39.14 643.41" stroke="rgba(8, 95, 158, 0.24)" stroke-width="1.5"></path><path d="M-94.86 560.38L60.31 369.06" stroke="rgba(8, 95, 158, 0.24)" stroke-width="1.5"></path><path d="M-40.9 706.4L-40.9 706.4" stroke="rgba(8, 95, 158, 0.24)" stroke-width="1.5"></path><path d="M-40.9 706.4L39.14 643.41" stroke="rgba(8, 95, 158, 0.24)" stroke-width="1.5"></path><path d="M-40.9 706.4L41.56 559.22" stroke="rgba(8, 95, 158, 0.24)" stroke-width="1.5"></path><path d="M-40.9 706.4L237.45 643.92" stroke="rgba(8, 95, 158, 0.24)" stroke-width="1.5"></path><path d="M-40.9 706.4L60.31 369.06" stroke="rgba(8, 95, 158, 0.24)" stroke-width="1.5"></path><path d="M60.31 369.06L60.31 369.06" stroke="rgba(8, 95, 158, 0.24)" stroke-width="1.5"></path><path d="M60.31 369.06L211.76 338.47" stroke="rgba(8, 95, 158, 0.24)" stroke-width="1.5"></path><path d="M60.31 369.06L41.56 559.22" stroke="rgba(8, 95, 158, 0.24)" stroke-width="1.5"></path><path d="M60.31 369.06L39.14 643.41" stroke="rgba(8, 95, 158, 0.24)" stroke-width="1.5"></path><path d="M60.31 369.06L354.2 402.94" stroke="rgba(8, 95, 158, 0.24)" stroke-width="1.5"></path><path d="M41.56 559.22L41.56 559.22" stroke="rgba(8, 95, 158, 0.24)" stroke-width="1.5"></path><path d="M41.56 559.22L39.14 643.41" stroke="rgba(8, 95, 158, 0.24)" stroke-width="1.5"></path><path d="M39.14 643.41L39.14 643.41" stroke="rgba(8, 95, 158, 0.24)" stroke-width="1.5"></path><path d="M39.14 643.41L237.45 643.92" stroke="rgba(8, 95, 158, 0.24)" stroke-width="1.5"></path><path d="M211.76 338.47L211.76 338.47" stroke="rgba(8, 95, 158, 0.24)" stroke-width="1.5"></path><path d="M211.76 338.47L354.2 402.94" stroke="rgba(8, 95, 158, 0.24)" stroke-width="1.5"></path><path d="M211.76 338.47L380.31 537.14" stroke="rgba(8, 95, 158, 0.24)" stroke-width="1.5"></path><path d="M237.45 643.92L237.45 643.92" stroke="rgba(8, 95, 158, 0.24)" stroke-width="1.5"></path><path d="M237.45 643.92L371.6 659.35" stroke="rgba(8, 95, 158, 0.24)" stroke-width="1.5"></path><path d="M237.45 643.92L380.31 537.14" stroke="rgba(8, 95, 158, 0.24)" stroke-width="1.5"></path><path d="M354.2 402.94L354.2 402.94" stroke="rgba(8, 95, 158, 0.24)" stroke-width="1.5"></path><path d="M354.2 402.94L380.31 537.14" stroke="rgba(8, 95, 158, 0.24)" stroke-width="1.5"></path><path d="M354.2 402.94L512.55 345.74" stroke="rgba(8, 95, 158, 0.24)" stroke-width="1.5"></path><path d="M354.2 402.94L540.27 512.92" stroke="rgba(8, 95, 158, 0.24)" stroke-width="1.5"></path><path d="M354.2 402.94L371.6 659.35" stroke="rgba(8, 95, 158, 0.24)" stroke-width="1.5"></path><path d="M354.2 402.94L237.45 643.92" stroke="rgba(8, 95, 158, 0.24)" stroke-width="1.5"></path><path d="M380.31 537.14L380.31 537.14" stroke="rgba(8, 95, 158, 0.24)" stroke-width="1.5"></path><path d="M380.31 537.14L371.6 659.35" stroke="rgba(8, 95, 158, 0.24)" stroke-width="1.5"></path><path d="M371.6 659.35L371.6 659.35" stroke="rgba(8, 95, 158, 0.24)" stroke-width="1.5"></path><path d="M371.6 659.35L494.47 647.17" stroke="rgba(8, 95, 158, 0.24)" stroke-width="1.5"></path><path d="M371.6 659.35L540.27 512.92" stroke="rgba(8, 95, 158, 0.24)" stroke-width="1.5"></path><path d="M512.55 345.74L512.55 345.74" stroke="rgba(8, 95, 158, 0.24)" stroke-width="1.5"></path><path d="M512.55 345.74L540.27 512.92" stroke="rgba(8, 95, 158, 0.24)" stroke-width="1.5"></path><path d="M512.55 345.74L677.03 248.08" stroke="rgba(8, 95, 158, 0.24)" stroke-width="1.5"></path><path d="M512.55 345.74L712.17 364.56" stroke="rgba(8, 95, 158, 0.24)" stroke-width="1.5"></path><path d="M540.27 512.92L540.27 512.92" stroke="rgba(8, 95, 158, 0.24)" stroke-width="1.5"></path><path d="M540.27 512.92L650.4 530.24" stroke="rgba(8, 95, 158, 0.24)" stroke-width="1.5"></path><path d="M540.27 512.92L494.47 647.17" stroke="rgba(8, 95, 158, 0.24)" stroke-width="1.5"></path><path d="M540.27 512.92L380.31 537.14" stroke="rgba(8, 95, 158, 0.24)" stroke-width="1.5"></path><path d="M494.47 647.17L494.47 647.17" stroke="rgba(8, 95, 158, 0.24)" stroke-width="1.5"></path><path d="M494.47 647.17L380.31 537.14" stroke="rgba(8, 95, 158, 0.24)" stroke-width="1.5"></path><path d="M494.47 647.17L680.3 701.12" stroke="rgba(8, 95, 158, 0.24)" stroke-width="1.5"></path><path d="M494.47 647.17L650.4 530.24" stroke="rgba(8, 95, 158, 0.24)" stroke-width="1.5"></path><path d="M677.03 248.08L677.03 248.08" stroke="rgba(8, 95, 158, 0.24)" stroke-width="1.5"></path><path d="M677.03 248.08L712.17 364.56" stroke="rgba(8, 95, 158, 0.24)" stroke-width="1.5"></path><path d="M677.03 248.08L800.65 222.18" stroke="rgba(8, 95, 158, 0.24)" stroke-width="1.5"></path><path d="M712.17 364.56L712.17 364.56" stroke="rgba(8, 95, 158, 0.24)" stroke-width="1.5"></path><path d="M712.17 364.56L853.09 355.76" stroke="rgba(8, 95, 158, 0.24)" stroke-width="1.5"></path><path d="M712.17 364.56L800.65 222.18" stroke="rgba(8, 95, 158, 0.24)" stroke-width="1.5"></path><path d="M712.17 364.56L650.4 530.24" stroke="rgba(8, 95, 158, 0.24)" stroke-width="1.5"></path><path d="M712.17 364.56L844.04 510.99" stroke="rgba(8, 95, 158, 0.24)" stroke-width="1.5"></path><path d="M650.4 530.24L650.4 530.24" stroke="rgba(8, 95, 158, 0.24)" stroke-width="1.5"></path><path d="M650.4 530.24L680.3 701.12" stroke="rgba(8, 95, 158, 0.24)" stroke-width="1.5"></path><path d="M650.4 530.24L844.04 510.99" stroke="rgba(8, 95, 158, 0.24)" stroke-width="1.5"></path><path d="M680.3 701.12L680.3 701.12" stroke="rgba(8, 95, 158, 0.24)" stroke-width="1.5"></path><path d="M680.3 701.12L822.92 647.24" stroke="rgba(8, 95, 158, 0.24)" stroke-width="1.5"></path><path d="M847.6 86.46L847.6 86.46" stroke="rgba(8, 95, 158, 0.24)" stroke-width="1.5"></path><path d="M847.6 86.46L977.37 71.43" stroke="rgba(8, 95, 158, 0.24)" stroke-width="1.5"></path><path d="M847.6 86.46L800.65 222.18" stroke="rgba(8, 95, 158, 0.24)" stroke-width="1.5"></path><path d="M847.6 86.46L968.01 -68.44" stroke="rgba(8, 95, 158, 0.24)" stroke-width="1.5"></path><path d="M847.6 86.46L1006.55 236.23" stroke="rgba(8, 95, 158, 0.24)" stroke-width="1.5"></path><path d="M847.6 86.46L677.03 248.08" stroke="rgba(8, 95, 158, 0.24)" stroke-width="1.5"></path><path d="M847.6 86.46L853.09 355.76" stroke="rgba(8, 95, 158, 0.24)" stroke-width="1.5"></path><path d="M800.65 222.18L800.65 222.18" stroke="rgba(8, 95, 158, 0.24)" stroke-width="1.5"></path><path d="M800.65 222.18L853.09 355.76" stroke="rgba(8, 95, 158, 0.24)" stroke-width="1.5"></path><path d="M853.09 355.76L853.09 355.76" stroke="rgba(8, 95, 158, 0.24)" stroke-width="1.5"></path><path d="M853.09 355.76L941.88 393.42" stroke="rgba(8, 95, 158, 0.24)" stroke-width="1.5"></path><path d="M844.04 510.99L844.04 510.99" stroke="rgba(8, 95, 158, 0.24)" stroke-width="1.5"></path><path d="M844.04 510.99L962.49 489.83" stroke="rgba(8, 95, 158, 0.24)" stroke-width="1.5"></path><path d="M844.04 510.99L822.92 647.24" stroke="rgba(8, 95, 158, 0.24)" stroke-width="1.5"></path><path d="M844.04 510.99L941.88 393.42" stroke="rgba(8, 95, 158, 0.24)" stroke-width="1.5"></path><path d="M844.04 510.99L853.09 355.76" stroke="rgba(8, 95, 158, 0.24)" stroke-width="1.5"></path><path d="M844.04 510.99L950.12 648.74" stroke="rgba(8, 95, 158, 0.24)" stroke-width="1.5"></path><path d="M822.92 647.24L822.92 647.24" stroke="rgba(8, 95, 158, 0.24)" stroke-width="1.5"></path><path d="M822.92 647.24L950.12 648.74" stroke="rgba(8, 95, 158, 0.24)" stroke-width="1.5"></path><path d="M822.92 647.24L650.4 530.24" stroke="rgba(8, 95, 158, 0.24)" stroke-width="1.5"></path><path d="M822.92 647.24L962.49 489.83" stroke="rgba(8, 95, 158, 0.24)" stroke-width="1.5"></path><path d="M968.01 -68.44L968.01 -68.44" stroke="rgba(8, 95, 158, 0.24)" stroke-width="1.5"></path><path d="M968.01 -68.44L977.37 71.43" stroke="rgba(8, 95, 158, 0.24)" stroke-width="1.5"></path><path d="M968.01 -68.44L1122.45 -86.42" stroke="rgba(8, 95, 158, 0.24)" stroke-width="1.5"></path><path d="M977.37 71.43L977.37 71.43" stroke="rgba(8, 95, 158, 0.24)" stroke-width="1.5"></path><path d="M977.37 71.43L1006.55 236.23" stroke="rgba(8, 95, 158, 0.24)" stroke-width="1.5"></path><path d="M977.37 71.43L1151.09 55.09" stroke="rgba(8, 95, 158, 0.24)" stroke-width="1.5"></path><path d="M977.37 71.43L1098.43 206.35" stroke="rgba(8, 95, 158, 0.24)" stroke-width="1.5"></path><path d="M977.37 71.43L1122.45 -86.42" stroke="rgba(8, 95, 158, 0.24)" stroke-width="1.5"></path><path d="M1006.55 236.23L1006.55 236.23" stroke="rgba(8, 95, 158, 0.24)" stroke-width="1.5"></path><path d="M1006.55 236.23L1098.43 206.35" stroke="rgba(8, 95, 158, 0.24)" stroke-width="1.5"></path><path d="M941.88 393.42L941.88 393.42" stroke="rgba(8, 95, 158, 0.24)" stroke-width="1.5"></path><path d="M941.88 393.42L962.49 489.83" stroke="rgba(8, 95, 158, 0.24)" stroke-width="1.5"></path><path d="M962.49 489.83L962.49 489.83" stroke="rgba(8, 95, 158, 0.24)" stroke-width="1.5"></path><path d="M962.49 489.83L950.12 648.74" stroke="rgba(8, 95, 158, 0.24)" stroke-width="1.5"></path><path d="M950.12 648.74L950.12 648.74" stroke="rgba(8, 95, 158, 0.24)" stroke-width="1.5"></path><path d="M950.12 648.74L1155.43 665.5" stroke="rgba(8, 95, 158, 0.24)" stroke-width="1.5"></path><path d="M950.12 648.74L1155.81 536.94" stroke="rgba(8, 95, 158, 0.24)" stroke-width="1.5"></path><path d="M950.12 648.74L941.88 393.42" stroke="rgba(8, 95, 158, 0.24)" stroke-width="1.5"></path><path d="M1122.45 -86.42L1122.45 -86.42" stroke="rgba(8, 95, 158, 0.24)" stroke-width="1.5"></path><path d="M1122.45 -86.42L1245.2 -98.56" stroke="rgba(8, 95, 158, 0.24)" stroke-width="1.5"></path><path d="M1122.45 -86.42L1151.09 55.09" stroke="rgba(8, 95, 158, 0.24)" stroke-width="1.5"></path><path d="M1151.09 55.09L1151.09 55.09" stroke="rgba(8, 95, 158, 0.24)" stroke-width="1.5"></path><path d="M1151.09 55.09L1098.43 206.35" stroke="rgba(8, 95, 158, 0.24)" stroke-width="1.5"></path><path d="M1151.09 55.09L1245.2 -98.56" stroke="rgba(8, 95, 158, 0.24)" stroke-width="1.5"></path><path d="M1151.09 55.09L1301.38 187.52" stroke="rgba(8, 95, 158, 0.24)" stroke-width="1.5"></path><path d="M1098.43 206.35L1098.43 206.35" stroke="rgba(8, 95, 158, 0.24)" stroke-width="1.5"></path><path d="M1098.43 206.35L1137.84 358" stroke="rgba(8, 95, 158, 0.24)" stroke-width="1.5"></path><path d="M1098.43 206.35L1301.38 187.52" stroke="rgba(8, 95, 158, 0.24)" stroke-width="1.5"></path><path d="M1137.84 358L1137.84 358" stroke="rgba(8, 95, 158, 0.24)" stroke-width="1.5"></path><path d="M1137.84 358L1279.68 390.56" stroke="rgba(8, 95, 158, 0.24)" stroke-width="1.5"></path><path d="M1137.84 358L1006.55 236.23" stroke="rgba(8, 95, 158, 0.24)" stroke-width="1.5"></path><path d="M1155.81 536.94L1155.81 536.94" stroke="rgba(8, 95, 158, 0.24)" stroke-width="1.5"></path><path d="M1155.81 536.94L1155.43 665.5" stroke="rgba(8, 95, 158, 0.24)" stroke-width="1.5"></path><path d="M1155.81 536.94L1281.31 502.79" stroke="rgba(8, 95, 158, 0.24)" stroke-width="1.5"></path><path d="M1155.81 536.94L1137.84 358" stroke="rgba(8, 95, 158, 0.24)" stroke-width="1.5"></path><path d="M1155.81 536.94L1279.68 390.56" stroke="rgba(8, 95, 158, 0.24)" stroke-width="1.5"></path><path d="M1155.43 665.5L1155.43 665.5" stroke="rgba(8, 95, 158, 0.24)" stroke-width="1.5"></path><path d="M1155.43 665.5L1311.69 658.22" stroke="rgba(8, 95, 158, 0.24)" stroke-width="1.5"></path><path d="M1155.43 665.5L1281.31 502.79" stroke="rgba(8, 95, 158, 0.24)" stroke-width="1.5"></path><path d="M1155.43 665.5L962.49 489.83" stroke="rgba(8, 95, 158, 0.24)" stroke-width="1.5"></path><path d="M1155.43 665.5L1421.6 704.17" stroke="rgba(8, 95, 158, 0.24)" stroke-width="1.5"></path><path d="M1245.2 -98.56L1245.2 -98.56" stroke="rgba(8, 95, 158, 0.24)" stroke-width="1.5"></path><path d="M1245.2 -98.56L1404.59 -86.69" stroke="rgba(8, 95, 158, 0.24)" stroke-width="1.5"></path><path d="M1245.2 -98.56L1389.45 94.97" stroke="rgba(8, 95, 158, 0.24)" stroke-width="1.5"></path><path d="M1301.38 187.52L1301.38 187.52" stroke="rgba(8, 95, 158, 0.24)" stroke-width="1.5"></path><path d="M1301.38 187.52L1389.45 94.97" stroke="rgba(8, 95, 158, 0.24)" stroke-width="1.5"></path><path d="M1301.38 187.52L1429.15 229.15" stroke="rgba(8, 95, 158, 0.24)" stroke-width="1.5"></path><path d="M1279.68 390.56L1279.68 390.56" stroke="rgba(8, 95, 158, 0.24)" stroke-width="1.5"></path><path d="M1279.68 390.56L1281.31 502.79" stroke="rgba(8, 95, 158, 0.24)" stroke-width="1.5"></path><path d="M1279.68 390.56L1410.3 374.05" stroke="rgba(8, 95, 158, 0.24)" stroke-width="1.5"></path><path d="M1281.31 502.79L1281.31 502.79" stroke="rgba(8, 95, 158, 0.24)" stroke-width="1.5"></path><path d="M1281.31 502.79L1427.66 544.82" stroke="rgba(8, 95, 158, 0.24)" stroke-width="1.5"></path><path d="M1281.31 502.79L1311.69 658.22" stroke="rgba(8, 95, 158, 0.24)" stroke-width="1.5"></path><path d="M1281.31 502.79L1410.3 374.05" stroke="rgba(8, 95, 158, 0.24)" stroke-width="1.5"></path><path d="M1311.69 658.22L1311.69 658.22" stroke="rgba(8, 95, 158, 0.24)" stroke-width="1.5"></path><path d="M1311.69 658.22L1421.6 704.17" stroke="rgba(8, 95, 158, 0.24)" stroke-width="1.5"></path><path d="M1404.59 -86.69L1404.59 -86.69" stroke="rgba(8, 95, 158, 0.24)" stroke-width="1.5"></path><path d="M1404.59 -86.69L1389.45 94.97" stroke="rgba(8, 95, 158, 0.24)" stroke-width="1.5"></path><path d="M1404.59 -86.69L1586.78 -40.39" stroke="rgba(8, 95, 158, 0.24)" stroke-width="1.5"></path><path d="M1404.59 -86.69L1604.01 63.43" stroke="rgba(8, 95, 158, 0.24)" stroke-width="1.5"></path><path d="M1404.59 -86.69L1122.45 -86.42" stroke="rgba(8, 95, 158, 0.24)" stroke-width="1.5"></path><path d="M1404.59 -86.69L1151.09 55.09" stroke="rgba(8, 95, 158, 0.24)" stroke-width="1.5"></path><path d="M1389.45 94.97L1389.45 94.97" stroke="rgba(8, 95, 158, 0.24)" stroke-width="1.5"></path><path d="M1389.45 94.97L1429.15 229.15" stroke="rgba(8, 95, 158, 0.24)" stroke-width="1.5"></path><path d="M1389.45 94.97L1604.01 63.43" stroke="rgba(8, 95, 158, 0.24)" stroke-width="1.5"></path><path d="M1429.15 229.15L1429.15 229.15" stroke="rgba(8, 95, 158, 0.24)" stroke-width="1.5"></path><path d="M1429.15 229.15L1410.3 374.05" stroke="rgba(8, 95, 158, 0.24)" stroke-width="1.5"></path><path d="M1429.15 229.15L1548.76 382.36" stroke="rgba(8, 95, 158, 0.24)" stroke-width="1.5"></path><path d="M1429.15 229.15L1279.68 390.56" stroke="rgba(8, 95, 158, 0.24)" stroke-width="1.5"></path><path d="M1410.3 374.05L1410.3 374.05" stroke="rgba(8, 95, 158, 0.24)" stroke-width="1.5"></path><path d="M1410.3 374.05L1548.76 382.36" stroke="rgba(8, 95, 158, 0.24)" stroke-width="1.5"></path><path d="M1427.66 544.82L1427.66 544.82" stroke="rgba(8, 95, 158, 0.24)" stroke-width="1.5"></path><path d="M1427.66 544.82L1421.6 704.17" stroke="rgba(8, 95, 158, 0.24)" stroke-width="1.5"></path><path d="M1427.66 544.82L1311.69 658.22" stroke="rgba(8, 95, 158, 0.24)" stroke-width="1.5"></path><path d="M1427.66 544.82L1410.3 374.05" stroke="rgba(8, 95, 158, 0.24)" stroke-width="1.5"></path><path d="M1427.66 544.82L1563.44 679.33" stroke="rgba(8, 95, 158, 0.24)" stroke-width="1.5"></path><path d="M1421.6 704.17L1421.6 704.17" stroke="rgba(8, 95, 158, 0.24)" stroke-width="1.5"></path><path d="M1421.6 704.17L1563.44 679.33" stroke="rgba(8, 95, 158, 0.24)" stroke-width="1.5"></path><path d="M1586.78 -40.39L1586.78 -40.39" stroke="rgba(8, 95, 158, 0.24)" stroke-width="1.5"></path><path d="M1586.78 -40.39L1604.01 63.43" stroke="rgba(8, 95, 158, 0.24)" stroke-width="1.5"></path><path d="M1604.01 63.43L1604.01 63.43" stroke="rgba(8, 95, 158, 0.24)" stroke-width="1.5"></path><path d="M1548.76 382.36L1548.76 382.36" stroke="rgba(8, 95, 158, 0.24)" stroke-width="1.5"></path><path d="M1548.76 382.36L1427.66 544.82" stroke="rgba(8, 95, 158, 0.24)" stroke-width="1.5"></path><path d="M1548.76 382.36L1279.68 390.56" stroke="rgba(8, 95, 158, 0.24)" stroke-width="1.5"></path><path d="M1563.44 679.33L1563.44 679.33" stroke="rgba(8, 95, 158, 0.24)" stroke-width="1.5"></path><path d="M1563.44 679.33L1311.69 658.22" stroke="rgba(8, 95, 158, 0.24)" stroke-width="1.5"></path><path d="M1563.44 679.33L1548.76 382.36" stroke="rgba(8, 95, 158, 0.24)" stroke-width="1.5"></path><circle r="5" cx="-96.43" cy="397.8" fill="rgba(8, 95, 158, 0.24)"></circle><circle r="5" cx="-94.86" cy="560.38" fill="rgba(8, 95, 158, 0.24)"></circle><circle r="5" cx="-40.9" cy="706.4" fill="rgba(8, 95, 158, 0.24)"></circle><circle r="5" cx="60.31" cy="369.06" fill="rgba(8, 95, 158, 0.24)"></circle><circle r="5" cx="41.56" cy="559.22" fill="rgba(8, 95, 158, 0.24)"></circle><circle r="5" cx="39.14" cy="643.41" fill="rgba(8, 95, 158, 0.24)"></circle><circle r="5" cx="211.76" cy="338.47" fill="rgba(8, 95, 158, 0.24)"></circle><circle r="5" cx="237.45" cy="643.92" fill="rgba(8, 95, 158, 0.24)"></circle><circle r="5" cx="354.2" cy="402.94" fill="rgba(8, 95, 158, 0.24)"></circle><circle r="5" cx="380.31" cy="537.14" fill="rgba(8, 95, 158, 0.24)"></circle><circle r="5" cx="371.6" cy="659.35" fill="rgba(8, 95, 158, 0.24)"></circle><circle r="5" cx="512.55" cy="345.74" fill="rgba(8, 95, 158, 0.24)"></circle><circle r="5" cx="540.27" cy="512.92" fill="rgba(8, 95, 158, 0.24)"></circle><circle r="5" cx="494.47" cy="647.17" fill="rgba(8, 95, 158, 0.24)"></circle><circle r="5" cx="677.03" cy="248.08" fill="rgba(8, 95, 158, 0.24)"></circle><circle r="5" cx="712.17" cy="364.56" fill="rgba(8, 95, 158, 0.24)"></circle><circle r="5" cx="650.4" cy="530.24" fill="rgba(8, 95, 158, 0.24)"></circle><circle r="5" cx="680.3" cy="701.12" fill="rgba(8, 95, 158, 0.24)"></circle><circle r="5" cx="847.6" cy="86.46" fill="rgba(8, 95, 158, 0.24)"></circle><circle r="5" cx="800.65" cy="222.18" fill="rgba(8, 95, 158, 0.24)"></circle><circle r="5" cx="853.09" cy="355.76" fill="rgba(8, 95, 158, 0.24)"></circle><circle r="5" cx="844.04" cy="510.99" fill="rgba(8, 95, 158, 0.24)"></circle><circle r="5" cx="822.92" cy="647.24" fill="rgba(8, 95, 158, 0.24)"></circle><circle r="5" cx="968.01" cy="-68.44" fill="rgba(8, 95, 158, 0.24)"></circle><circle r="5" cx="977.37" cy="71.43" fill="rgba(8, 95, 158, 0.24)"></circle><circle r="5" cx="1006.55" cy="236.23" fill="rgba(8, 95, 158, 0.24)"></circle><circle r="5" cx="941.88" cy="393.42" fill="rgba(8, 95, 158, 0.24)"></circle><circle r="5" cx="962.49" cy="489.83" fill="rgba(8, 95, 158, 0.24)"></circle><circle r="5" cx="950.12" cy="648.74" fill="rgba(8, 95, 158, 0.24)"></circle><circle r="5" cx="1122.45" cy="-86.42" fill="rgba(8, 95, 158, 0.24)"></circle><circle r="5" cx="1151.09" cy="55.09" fill="rgba(8, 95, 158, 0.24)"></circle><circle r="5" cx="1098.43" cy="206.35" fill="rgba(8, 95, 158, 0.24)"></circle><circle r="5" cx="1137.84" cy="358" fill="rgba(8, 95, 158, 0.24)"></circle><circle r="5" cx="1155.81" cy="536.94" fill="rgba(8, 95, 158, 0.24)"></circle><circle r="5" cx="1155.43" cy="665.5" fill="rgba(8, 95, 158, 0.24)"></circle><circle r="5" cx="1245.2" cy="-98.56" fill="rgba(8, 95, 158, 0.24)"></circle><circle r="5" cx="1301.38" cy="187.52" fill="rgba(8, 95, 158, 0.24)"></circle><circle r="5" cx="1279.68" cy="390.56" fill="rgba(8, 95, 158, 0.24)"></circle><circle r="5" cx="1281.31" cy="502.79" fill="rgba(8, 95, 158, 0.24)"></circle><circle r="5" cx="1311.69" cy="658.22" fill="rgba(8, 95, 158, 0.24)"></circle><circle r="5" cx="1404.59" cy="-86.69" fill="rgba(8, 95, 158, 0.24)"></circle><circle r="5" cx="1389.45" cy="94.97" fill="rgba(8, 95, 158, 0.24)"></circle><circle r="5" cx="1429.15" cy="229.15" fill="rgba(8, 95, 158, 0.24)"></circle><circle r="5" cx="1410.3" cy="374.05" fill="rgba(8, 95, 158, 0.24)"></circle><circle r="5" cx="1427.66" cy="544.82" fill="rgba(8, 95, 158, 0.24)"></circle><circle r="5" cx="1421.6" cy="704.17" fill="rgba(8, 95, 158, 0.24)"></circle><circle r="5" cx="1586.78" cy="-40.39" fill="rgba(8, 95, 158, 0.24)"></circle><circle r="5" cx="1604.01" cy="63.43" fill="rgba(8, 95, 158, 0.24)"></circle><circle r="5" cx="1548.76" cy="382.36" fill="rgba(8, 95, 158, 0.24)"></circle><circle r="5" cx="1563.44" cy="679.33" fill="rgba(8, 95, 158, 0.24)"></circle><path d="M539.88 493.5L539.88 493.5" stroke="hsl(205.20000000000005, 90.4%, 42.3%)" stroke-width="1.5"></path><path d="M539.88 493.5L407.76 554.36" stroke="hsl(205.20000000000005, 90.4%, 42.3%)" stroke-width="1.5"></path><path d="M539.88 493.5L358.65 659.96" stroke="hsl(205.20000000000005, 90.4%, 42.3%)" stroke-width="1.5"></path><path d="M539.88 493.5L792.47 494.78" stroke="hsl(205.20000000000005, 90.4%, 42.3%)" stroke-width="1.5"></path><path d="M539.88 493.5L676.68 707.51" stroke="hsl(205.20000000000005, 90.4%, 42.3%)" stroke-width="1.5"></path><path d="M1285.64 -63.79L1285.64 -63.79" stroke="hsl(205.20000000000005, 90.4%, 42.3%)" stroke-width="1.5"></path><path d="M1285.64 -63.79L1271.73 65.13" stroke="hsl(205.20000000000005, 90.4%, 42.3%)" stroke-width="1.5"></path><path d="M1285.64 -63.79L1435.65 -106.33" stroke="hsl(205.20000000000005, 90.4%, 42.3%)" stroke-width="1.5"></path><path d="M1285.64 -63.79L1419.49 83.72" stroke="hsl(205.20000000000005, 90.4%, 42.3%)" stroke-width="1.5"></path><path d="M1285.64 -63.79L1554.88 -103.03" stroke="hsl(205.20000000000005, 90.4%, 42.3%)" stroke-width="1.5"></path><path d="M1285.64 -63.79L1245.12 257.96" stroke="hsl(205.20000000000005, 90.4%, 42.3%)" stroke-width="1.5"></path><path d="M1285.64 -63.79L1138.25 226.87" stroke="hsl(205.20000000000005, 90.4%, 42.3%)" stroke-width="1.5"></path><path d="M1277.07 370.21L1277.07 370.21" stroke="hsl(205.20000000000005, 90.4%, 42.3%)" stroke-width="1.5"></path><path d="M1277.07 370.21L1245.12 257.96" stroke="hsl(205.20000000000005, 90.4%, 42.3%)" stroke-width="1.5"></path><path d="M1277.07 370.21L1131.95 356.62" stroke="hsl(205.20000000000005, 90.4%, 42.3%)" stroke-width="1.5"></path><path d="M1277.07 370.21L1242.86 518.62" stroke="hsl(205.20000000000005, 90.4%, 42.3%)" stroke-width="1.5"></path><path d="M1277.07 370.21L1138.25 226.87" stroke="hsl(205.20000000000005, 90.4%, 42.3%)" stroke-width="1.5"></path><path d="M1441.06 233.95L1441.06 233.95" stroke="hsl(205.20000000000005, 90.4%, 42.3%)" stroke-width="1.5"></path><path d="M1441.06 233.95L1549.7 238.81" stroke="hsl(205.20000000000005, 90.4%, 42.3%)" stroke-width="1.5"></path><path d="M1441.06 233.95L1419.49 83.72" stroke="hsl(205.20000000000005, 90.4%, 42.3%)" stroke-width="1.5"></path><path d="M1441.06 233.95L1245.12 257.96" stroke="hsl(205.20000000000005, 90.4%, 42.3%)" stroke-width="1.5"></path><path d="M1441.06 233.95L1582.73 383.23" stroke="hsl(205.20000000000005, 90.4%, 42.3%)" stroke-width="1.5"></path><path d="M1441.06 233.95L1277.07 370.21" stroke="hsl(205.20000000000005, 90.4%, 42.3%)" stroke-width="1.5"></path><path d="M1438.77 638.87L1438.77 638.87" stroke="hsl(205.20000000000005, 90.4%, 42.3%)" stroke-width="1.5"></path><path d="M1438.77 638.87L1418.71 543.8" stroke="hsl(205.20000000000005, 90.4%, 42.3%)" stroke-width="1.5"></path><path d="M1438.77 638.87L1537.52 643.21" stroke="hsl(205.20000000000005, 90.4%, 42.3%)" stroke-width="1.5"></path><path d="M1438.77 638.87L1566.8 539.86" stroke="hsl(205.20000000000005, 90.4%, 42.3%)" stroke-width="1.5"></path><path d="M1438.77 638.87L1258.37 688.73" stroke="hsl(205.20000000000005, 90.4%, 42.3%)" stroke-width="1.5"></path><path d="M1554.88 -103.03L1554.88 -103.03" stroke="hsl(205.20000000000005, 90.4%, 42.3%)" stroke-width="1.5"></path><path d="M1554.88 -103.03L1435.65 -106.33" stroke="hsl(205.20000000000005, 90.4%, 42.3%)" stroke-width="1.5"></path><path d="M1582.73 383.23L1582.73 383.23" stroke="hsl(205.20000000000005, 90.4%, 42.3%)" stroke-width="1.5"></path><path d="M1582.73 383.23L1549.7 238.81" stroke="hsl(205.20000000000005, 90.4%, 42.3%)" stroke-width="1.5"></path><path d="M1582.73 383.23L1566.8 539.86" stroke="hsl(205.20000000000005, 90.4%, 42.3%)" stroke-width="1.5"></path><path d="M1566.8 539.86L1566.8 539.86" stroke="hsl(205.20000000000005, 90.4%, 42.3%)" stroke-width="1.5"></path><path d="M1566.8 539.86L1537.52 643.21" stroke="hsl(205.20000000000005, 90.4%, 42.3%)" stroke-width="1.5"></path><path d="M1566.8 539.86L1418.71 543.8" stroke="hsl(205.20000000000005, 90.4%, 42.3%)" stroke-width="1.5"></path><path d="M1537.52 643.21L1537.52 643.21" stroke="hsl(205.20000000000005, 90.4%, 42.3%)" stroke-width="1.5"></path><path d="M1537.52 643.21L1418.71 543.8" stroke="hsl(205.20000000000005, 90.4%, 42.3%)" stroke-width="1.5"></path><path d="M1537.52 643.21L1582.73 383.23" stroke="hsl(205.20000000000005, 90.4%, 42.3%)" stroke-width="1.5"></path><path d="M1537.52 643.21L1258.37 688.73" stroke="hsl(205.20000000000005, 90.4%, 42.3%)" stroke-width="1.5"></path><path d="M1537.52 643.21L1242.86 518.62" stroke="hsl(205.20000000000005, 90.4%, 42.3%)" stroke-width="1.5"></path><path d="M-110.73 494.86L-110.73 494.86" stroke="hsl(205.20000000000005, 90.4%, 42.3%)" stroke-width="1.5"></path><path d="M-110.73 494.86L-51.67 647.1" stroke="hsl(205.20000000000005, 90.4%, 42.3%)" stroke-width="1.5"></path><path d="M-110.73 494.86L77.13 663.65" stroke="hsl(205.20000000000005, 90.4%, 42.3%)" stroke-width="1.5"></path><path d="M-110.73 494.86L192.85 548.23" stroke="hsl(205.20000000000005, 90.4%, 42.3%)" stroke-width="1.5"></path><path d="M-51.67 647.1L-51.67 647.1" stroke="hsl(205.20000000000005, 90.4%, 42.3%)" stroke-width="1.5"></path><path d="M-51.67 647.1L77.13 663.65" stroke="hsl(205.20000000000005, 90.4%, 42.3%)" stroke-width="1.5"></path><path d="M77.13 663.65L77.13 663.65" stroke="hsl(205.20000000000005, 90.4%, 42.3%)" stroke-width="1.5"></path><path d="M77.13 663.65L222.41 643" stroke="hsl(205.20000000000005, 90.4%, 42.3%)" stroke-width="1.5"></path><path d="M77.13 663.65L192.85 548.23" stroke="hsl(205.20000000000005, 90.4%, 42.3%)" stroke-width="1.5"></path><path d="M77.13 663.65L358.65 659.96" stroke="hsl(205.20000000000005, 90.4%, 42.3%)" stroke-width="1.5"></path><path d="M192.85 548.23L192.85 548.23" stroke="hsl(205.20000000000005, 90.4%, 42.3%)" stroke-width="1.5"></path><path d="M192.85 548.23L222.41 643" stroke="hsl(205.20000000000005, 90.4%, 42.3%)" stroke-width="1.5"></path><path d="M222.41 643L222.41 643" stroke="hsl(205.20000000000005, 90.4%, 42.3%)" stroke-width="1.5"></path><path d="M222.41 643L358.65 659.96" stroke="hsl(205.20000000000005, 90.4%, 42.3%)" stroke-width="1.5"></path><path d="M222.41 643L407.76 554.36" stroke="hsl(205.20000000000005, 90.4%, 42.3%)" stroke-width="1.5"></path><path d="M222.41 643L-51.67 647.1" stroke="hsl(205.20000000000005, 90.4%, 42.3%)" stroke-width="1.5"></path><path d="M222.41 643L539.88 493.5" stroke="hsl(205.20000000000005, 90.4%, 42.3%)" stroke-width="1.5"></path><path d="M407.76 554.36L407.76 554.36" stroke="hsl(205.20000000000005, 90.4%, 42.3%)" stroke-width="1.5"></path><path d="M407.76 554.36L358.65 659.96" stroke="hsl(205.20000000000005, 90.4%, 42.3%)" stroke-width="1.5"></path><path d="M407.76 554.36L192.85 548.23" stroke="hsl(205.20000000000005, 90.4%, 42.3%)" stroke-width="1.5"></path><path d="M407.76 554.36L676.68 707.51" stroke="hsl(205.20000000000005, 90.4%, 42.3%)" stroke-width="1.5"></path><path d="M407.76 554.36L77.13 663.65" stroke="hsl(205.20000000000005, 90.4%, 42.3%)" stroke-width="1.5"></path><path d="M358.65 659.96L358.65 659.96" stroke="hsl(205.20000000000005, 90.4%, 42.3%)" stroke-width="1.5"></path><path d="M676.68 707.51L676.68 707.51" stroke="hsl(205.20000000000005, 90.4%, 42.3%)" stroke-width="1.5"></path><path d="M676.68 707.51L833.39 709.28" stroke="hsl(205.20000000000005, 90.4%, 42.3%)" stroke-width="1.5"></path><path d="M676.68 707.51L792.47 494.78" stroke="hsl(205.20000000000005, 90.4%, 42.3%)" stroke-width="1.5"></path><path d="M792.97 412.26L792.97 412.26" stroke="hsl(205.20000000000005, 90.4%, 42.3%)" stroke-width="1.5"></path><path d="M792.97 412.26L792.47 494.78" stroke="hsl(205.20000000000005, 90.4%, 42.3%)" stroke-width="1.5"></path><path d="M792.97 412.26L937.82 554.08" stroke="hsl(205.20000000000005, 90.4%, 42.3%)" stroke-width="1.5"></path><path d="M792.97 412.26L999.55 382.12" stroke="hsl(205.20000000000005, 90.4%, 42.3%)" stroke-width="1.5"></path><path d="M792.97 412.26L539.88 493.5" stroke="hsl(205.20000000000005, 90.4%, 42.3%)" stroke-width="1.5"></path><path d="M792.47 494.78L792.47 494.78" stroke="hsl(205.20000000000005, 90.4%, 42.3%)" stroke-width="1.5"></path><path d="M792.47 494.78L937.82 554.08" stroke="hsl(205.20000000000005, 90.4%, 42.3%)" stroke-width="1.5"></path><path d="M792.47 494.78L833.39 709.28" stroke="hsl(205.20000000000005, 90.4%, 42.3%)" stroke-width="1.5"></path><path d="M792.47 494.78L999.55 382.12" stroke="hsl(205.20000000000005, 90.4%, 42.3%)" stroke-width="1.5"></path><path d="M833.39 709.28L833.39 709.28" stroke="hsl(205.20000000000005, 90.4%, 42.3%)" stroke-width="1.5"></path><path d="M833.39 709.28L937.82 554.08" stroke="hsl(205.20000000000005, 90.4%, 42.3%)" stroke-width="1.5"></path><path d="M833.39 709.28L792.97 412.26" stroke="hsl(205.20000000000005, 90.4%, 42.3%)" stroke-width="1.5"></path><path d="M833.39 709.28L1150.75 643.06" stroke="hsl(205.20000000000005, 90.4%, 42.3%)" stroke-width="1.5"></path><path d="M833.39 709.28L1130.51 506.27" stroke="hsl(205.20000000000005, 90.4%, 42.3%)" stroke-width="1.5"></path><path d="M999.55 382.12L999.55 382.12" stroke="hsl(205.20000000000005, 90.4%, 42.3%)" stroke-width="1.5"></path><path d="M999.55 382.12L1131.95 356.62" stroke="hsl(205.20000000000005, 90.4%, 42.3%)" stroke-width="1.5"></path><path d="M999.55 382.12L1130.51 506.27" stroke="hsl(205.20000000000005, 90.4%, 42.3%)" stroke-width="1.5"></path><path d="M937.82 554.08L937.82 554.08" stroke="hsl(205.20000000000005, 90.4%, 42.3%)" stroke-width="1.5"></path><path d="M937.82 554.08L999.55 382.12" stroke="hsl(205.20000000000005, 90.4%, 42.3%)" stroke-width="1.5"></path><path d="M1138.25 226.87L1138.25 226.87" stroke="hsl(205.20000000000005, 90.4%, 42.3%)" stroke-width="1.5"></path><path d="M1138.25 226.87L1245.12 257.96" stroke="hsl(205.20000000000005, 90.4%, 42.3%)" stroke-width="1.5"></path><path d="M1138.25 226.87L1131.95 356.62" stroke="hsl(205.20000000000005, 90.4%, 42.3%)" stroke-width="1.5"></path><path d="M1138.25 226.87L999.55 382.12" stroke="hsl(205.20000000000005, 90.4%, 42.3%)" stroke-width="1.5"></path><path d="M1138.25 226.87L1271.73 65.13" stroke="hsl(205.20000000000005, 90.4%, 42.3%)" stroke-width="1.5"></path><path d="M1138.25 226.87L1130.51 506.27" stroke="hsl(205.20000000000005, 90.4%, 42.3%)" stroke-width="1.5"></path><path d="M1131.95 356.62L1131.95 356.62" stroke="hsl(205.20000000000005, 90.4%, 42.3%)" stroke-width="1.5"></path><path d="M1131.95 356.62L1130.51 506.27" stroke="hsl(205.20000000000005, 90.4%, 42.3%)" stroke-width="1.5"></path><path d="M1131.95 356.62L1245.12 257.96" stroke="hsl(205.20000000000005, 90.4%, 42.3%)" stroke-width="1.5"></path><path d="M1130.51 506.27L1130.51 506.27" stroke="hsl(205.20000000000005, 90.4%, 42.3%)" stroke-width="1.5"></path><path d="M1130.51 506.27L1242.86 518.62" stroke="hsl(205.20000000000005, 90.4%, 42.3%)" stroke-width="1.5"></path><path d="M1130.51 506.27L1150.75 643.06" stroke="hsl(205.20000000000005, 90.4%, 42.3%)" stroke-width="1.5"></path><path d="M1150.75 643.06L1150.75 643.06" stroke="hsl(205.20000000000005, 90.4%, 42.3%)" stroke-width="1.5"></path><path d="M1150.75 643.06L1258.37 688.73" stroke="hsl(205.20000000000005, 90.4%, 42.3%)" stroke-width="1.5"></path><path d="M1150.75 643.06L1242.86 518.62" stroke="hsl(205.20000000000005, 90.4%, 42.3%)" stroke-width="1.5"></path><path d="M1271.73 65.13L1271.73 65.13" stroke="hsl(205.20000000000005, 90.4%, 42.3%)" stroke-width="1.5"></path><path d="M1271.73 65.13L1419.49 83.72" stroke="hsl(205.20000000000005, 90.4%, 42.3%)" stroke-width="1.5"></path><path d="M1271.73 65.13L1245.12 257.96" stroke="hsl(205.20000000000005, 90.4%, 42.3%)" stroke-width="1.5"></path><path d="M1271.73 65.13L1435.65 -106.33" stroke="hsl(205.20000000000005, 90.4%, 42.3%)" stroke-width="1.5"></path><path d="M1245.12 257.96L1245.12 257.96" stroke="hsl(205.20000000000005, 90.4%, 42.3%)" stroke-width="1.5"></path><path d="M1245.12 257.96L1419.49 83.72" stroke="hsl(205.20000000000005, 90.4%, 42.3%)" stroke-width="1.5"></path><path d="M1242.86 518.62L1242.86 518.62" stroke="hsl(205.20000000000005, 90.4%, 42.3%)" stroke-width="1.5"></path><path d="M1242.86 518.62L1258.37 688.73" stroke="hsl(205.20000000000005, 90.4%, 42.3%)" stroke-width="1.5"></path><path d="M1242.86 518.62L1418.71 543.8" stroke="hsl(205.20000000000005, 90.4%, 42.3%)" stroke-width="1.5"></path><path d="M1242.86 518.62L1131.95 356.62" stroke="hsl(205.20000000000005, 90.4%, 42.3%)" stroke-width="1.5"></path><path d="M1258.37 688.73L1258.37 688.73" stroke="hsl(205.20000000000005, 90.4%, 42.3%)" stroke-width="1.5"></path><path d="M1258.37 688.73L1418.71 543.8" stroke="hsl(205.20000000000005, 90.4%, 42.3%)" stroke-width="1.5"></path><path d="M1435.65 -106.33L1435.65 -106.33" stroke="hsl(205.20000000000005, 90.4%, 42.3%)" stroke-width="1.5"></path><path d="M1419.49 83.72L1419.49 83.72" stroke="hsl(205.20000000000005, 90.4%, 42.3%)" stroke-width="1.5"></path><path d="M1419.49 83.72L1435.65 -106.33" stroke="hsl(205.20000000000005, 90.4%, 42.3%)" stroke-width="1.5"></path><path d="M1419.49 83.72L1609.53 46.8" stroke="hsl(205.20000000000005, 90.4%, 42.3%)" stroke-width="1.5"></path><path d="M1418.71 543.8L1418.71 543.8" stroke="hsl(205.20000000000005, 90.4%, 42.3%)" stroke-width="1.5"></path><path d="M1609.53 46.8L1609.53 46.8" stroke="hsl(205.20000000000005, 90.4%, 42.3%)" stroke-width="1.5"></path><path d="M1609.53 46.8L1554.88 -103.03" stroke="hsl(205.20000000000005, 90.4%, 42.3%)" stroke-width="1.5"></path><path d="M1609.53 46.8L1549.7 238.81" stroke="hsl(205.20000000000005, 90.4%, 42.3%)" stroke-width="1.5"></path><path d="M1549.7 238.81L1549.7 238.81" stroke="hsl(205.20000000000005, 90.4%, 42.3%)" stroke-width="1.5"></path><path d="M1549.7 238.81L1419.49 83.72" stroke="hsl(205.20000000000005, 90.4%, 42.3%)" stroke-width="1.5"></path><circle r="25" cx="539.88" cy="493.5" fill="url(&quot;#SvgjsRadialGradient1031&quot;)"></circle><circle r="25" cx="1285.64" cy="-63.79" fill="url(&quot;#SvgjsRadialGradient1031&quot;)"></circle><circle r="25" cx="1277.07" cy="370.21" fill="url(&quot;#SvgjsRadialGradient1031&quot;)"></circle><circle r="25" cx="1441.06" cy="233.95" fill="url(&quot;#SvgjsRadialGradient1031&quot;)"></circle><circle r="25" cx="1438.77" cy="638.87" fill="url(&quot;#SvgjsRadialGradient1031&quot;)"></circle><circle r="25" cx="1554.88" cy="-103.03" fill="url(&quot;#SvgjsRadialGradient1031&quot;)"></circle><circle r="25" cx="1582.73" cy="383.23" fill="url(&quot;#SvgjsRadialGradient1031&quot;)"></circle><circle r="25" cx="1566.8" cy="539.86" fill="url(&quot;#SvgjsRadialGradient1031&quot;)"></circle><circle r="25" cx="1537.52" cy="643.21" fill="url(&quot;#SvgjsRadialGradient1031&quot;)"></circle><circle r="5" cx="-110.73" cy="494.86" fill="#84afcf"></circle><circle r="5" cx="-51.67" cy="647.1" fill="#84afcf"></circle><circle r="5" cx="77.13" cy="663.65" fill="#84afcf"></circle><circle r="5" cx="192.85" cy="548.23" fill="#84afcf"></circle><circle r="5" cx="222.41" cy="643" fill="#84afcf"></circle><circle r="5" cx="407.76" cy="554.36" fill="#84afcf"></circle><circle r="5" cx="358.65" cy="659.96" fill="#84afcf"></circle><circle r="5" cx="676.68" cy="707.51" fill="#84afcf"></circle><circle r="5" cx="792.97" cy="412.26" fill="#84afcf"></circle><circle r="5" cx="792.47" cy="494.78" fill="#84afcf"></circle><circle r="5" cx="833.39" cy="709.28" fill="#84afcf"></circle><circle r="5" cx="999.55" cy="382.12" fill="#84afcf"></circle><circle r="5" cx="937.82" cy="554.08" fill="#84afcf"></circle><circle r="5" cx="1138.25" cy="226.87" fill="#84afcf"></circle><circle r="5" cx="1131.95" cy="356.62" fill="#84afcf"></circle><circle r="5" cx="1130.51" cy="506.27" fill="#84afcf"></circle><circle r="5" cx="1150.75" cy="643.06" fill="#84afcf"></circle><circle r="5" cx="1271.73" cy="65.13" fill="#84afcf"></circle><circle r="5" cx="1245.12" cy="257.96" fill="#84afcf"></circle><circle r="5" cx="1242.86" cy="518.62" fill="#84afcf"></circle><circle r="5" cx="1258.37" cy="688.73" fill="#84afcf"></circle><circle r="5" cx="1435.65" cy="-106.33" fill="#84afcf"></circle><circle r="5" cx="1419.49" cy="83.72" fill="#84afcf"></circle><circle r="5" cx="1418.71" cy="543.8" fill="#84afcf"></circle><circle r="5" cx="1609.53" cy="46.8" fill="#84afcf"></circle><circle r="5" cx="1549.7" cy="238.81" fill="#84afcf"></circle></g><defs><mask id="SvgjsMask1030"><rect width="1440" height="560" fill="#ffffff"></rect></mask><radialGradient id="SvgjsRadialGradient1031"><stop stop-color="#ffffff" offset="0.1"></stop><stop stop-color="rgba(8, 95, 158, 1)" offset="0.2"></stop><stop stop-color="rgba(8, 95, 158, 0)" offset="1"></stop></radialGradient></defs></svg>