<?xml version="1.0" encoding="utf-8"?>
<!-- Generator: Adobe Illustrator 25.0.1, SVG Export Plug-In . SVG Version: 6.00 Build 0)  -->
<svg version="1.0" id="katman_1" xmlns="http://www.w3.org/2000/svg" xmlns:xlink="http://www.w3.org/1999/xlink" x="0px" y="0px"
	 viewBox="0 0 560 400" style="enable-background:new 0 0 560 400;" xml:space="preserve">
<style type="text/css">
	.st0{fill-rule:evenodd;clip-rule:evenodd;fill:#EF4135;}
	.st1{fill-rule:evenodd;clip-rule:evenodd;}
</style>
<path class="st0" d="M110.3,164v-9H69.9v9h13.9v39.1h12.5V164H110.3z M266.1,203.1c-0.3-3.2-0.5-5.7-0.5-7.3v-16.2
	c0-6.7-4.9-10.9-11.5-10.9c-4.7,0.1-8.9,2.2-11.1,5.9c-1.4-3.7-5.5-5.7-9.4-5.7c-4.7,0-8.6,1.5-10.8,5.7l-0.3-5h-11.5v33.5H223
	v-20.2c0-1.1-0.5-6.8,5-6.8c3.7,0,4.5,3.3,4.5,6.5v20.5h11.8v-20.2c0-1.1-0.5-6.8,5-6.8c3.7,0,4.5,3.3,4.5,6.5v20.5L266.1,203.1z
	 M208.4,179.4v-10.2c-5.1-0.1-9.1,1.6-10.6,6.7l-0.3-6.4h-11.9c0.3,2.7,0.3,6.4,0.3,8.6v24.9h11.9v-14.6c0-5.5,1.6-8.9,8.1-9.1
	C206.7,179.4,207.5,179.4,208.4,179.4 M286.6,168.7c-10.9,0-18,6.1-18,17.6c0,11.9,7.2,17.8,18,17.8c10.9,0,18-5.9,18-17.8
	C304.6,174.7,297.5,168.7,286.6,168.7 M286.6,175.7c5,0,5.9,5.1,5.9,10.4c0,6.1-1.1,10.9-5.9,10.9c-4.9,0-5.9-4.8-5.9-10.9
	C280.6,180.8,281.6,175.7,286.6,175.7L286.6,175.7z M146.8,203.1c-0.3-3.2-0.5-5.5-0.5-7.3v-16.2c0-6.7-5-10.9-11.5-10.9
	c-2,0-3.9,0.3-5.6,1.1c-1.5,0.7-3,1.8-4.3,3.4V155h-11.9v48.1H125v-20.2c0-1.1-0.5-6.8,5-6.8c3.7,0,4.5,3.3,4.5,6.5v20.5
	L146.8,203.1L146.8,203.1z M183.1,188.6c0.1-12.1-3.5-20-16.9-20c-10.6,0-16.9,6.5-16.9,16.7c0,12.5,4.5,18.6,17.5,18.6
	c4.1,0,7.7-0.9,10.4-2.8c2.9-1.9,5.3-5,5.7-9.2h-11.2c-0.3,3.1-2.1,5.1-5.7,5.1c-4.5,0-5.5-4.3-5.4-8.5L183.1,188.6z M171.8,182.2
	h-11c0.3-3.5,1.1-7.1,5.5-7.3c2-0.1,3.3,0.9,4.2,2.3C171.4,178.6,171.8,180.5,171.8,182.2L171.8,182.2z"/>
<path class="st0" d="M490.1,178.9v-10.2c-5.1-0.1-9.1,1.6-10.6,6.7l-0.3-5.8h-11.9c0.3,2.7,0.3,6.4,0.3,8.6v24.9h11.9v-14.7
	c0-5.5,1.6-9.5,8.1-9.7C488.4,178.8,489.2,178.8,490.1,178.9 M428.4,203.1c-0.3-3.2-0.5-5.5-0.5-7.3v-16.2c0-6.7-5-10.9-11.5-10.9
	c-2,0-3.8,0.3-5.5,1.1c-1.5,0.7-3.1,1.8-4.4,3.4V155h-11.9v48.1h11.9v-20.2c0-1.1-0.5-6.8,5-6.8c3.7,0,4.5,3.3,4.5,6.5v20.5
	L428.4,203.1L428.4,203.1z M391.8,193.1c0-5.2-2.7-7.7-6.5-9.1c-7.1-2.5-12.5-2.7-12.5-5.3c0-2,1.1-3.1,3.1-3.1
	c1.5,0,2.5,0.4,3.2,1.1c0.6,0.7,0.9,1.7,0.9,3.2h11.3c-0.3-8.8-7.2-11.1-14.8-11.1c-6.5,0-14.9,2.3-14.9,10.3c0,11.7,19,8.7,19,14.9
	c0,2.2-1.8,3.2-4.1,3.2c-1.3,0-2.4-0.7-3.1-1.6c-0.7-0.9-0.9-2.1-0.7-3.3h-11.3c-0.2,10,7.2,11.8,15.4,11.8
	C384.4,204,391.8,201.2,391.8,193.1 M464.7,188.6c0.1-12.1-3.5-20-16.9-20c-10.6,0-16.9,6.5-16.9,16.7c0,12.5,4.5,18.6,17.5,18.6
	c4.1,0,7.7-0.9,10.4-2.8c2.9-1.9,5.3-5,5.7-9.2h-11.2c-0.3,3.1-2.1,5.1-5.7,5.1c-4.5,0-5.5-4.3-5.4-8.5L464.7,188.6z M453.4,182.2
	h-11c0.3-3.5,1.1-7.1,5.5-7.3c2-0.1,3.3,0.9,4.2,2.3C453,178.6,453.4,180.4,453.4,182.2L453.4,182.2z M358.3,169.6h-11.9v33.5h11.9
	V169.6z M342.8,163.9l2.8-8.9h-31.9v48.1h12.5v-18.9h10.1l2.8-8.9h-12.9v-11.5L342.8,163.9L342.8,163.9z M358.3,163.8l2.8-8.8h-11.7
	l-2.8,8.8H358.3z"/>
<path class="st1" d="M178.7,217.2h4.3v27.3h-4.3V217.2z"/>
<path class="st1" d="M471.4,244.9c-9.1,0-15.9-5-15.9-13.9c0-9,7.6-14.4,16.2-14.4c3.1,0,6.4,1,8.6,2.4l-2.2,2.7
	c-1.9-1.1-4-1.8-6.3-1.8c-3.3,0-6.5,1-8.6,3.3c-1.8,1.9-2.8,4.5-2.8,8c0,3.8,1.2,5.9,3.2,8c2.1,2.1,5.3,2.6,8.4,2.6
	c2.5,0,5-0.9,6.9-1.9l2.1,2.6C478.7,243.8,475,244.9,471.4,244.9"/>
<path class="st1" d="M425.6,217.2h4.4v27.3h-4.4V217.2z"/>
<path class="st1" d="M327.4,220.4h-10.2v24H313v-24h-10.1v-3.3h24.9L327.4,220.4z"/>
<path class="st1" d="M100.9,243.5c-2.1,1-4.7,1.5-7.7,1.5c-3.9,0-7.8-0.9-11-2.5l1.8-3.1c3.2,1.6,6.2,2.3,9.5,2.3
	c2.2,0,3.6-0.4,5-1.1c1.6-0.9,2.4-2,2.4-3.5c0-2.3-1.7-3.7-6-4.7l-4.4-1c-4.4-1-7.2-3.8-7.2-7c0-4.6,4.6-7.9,11.1-7.9
	c3.8,0,7.9,1,10.5,2.6l-2,2.8c-2.7-1.5-5.4-2.2-8.3-2.2c-3.9,0-6.6,1.5-6.6,4.1c0,2,1.6,3.1,5.4,4.1l4.1,1c2.3,0.6,4.7,1.5,6,2.8
	c1.3,1.2,2.1,3,2.1,4.9C105.7,239.2,103.9,241.9,100.9,243.5"/>
<path class="st1" d="M275.5,244.4l-10.8-14.5c-2-2.7-5.5-8-5.5-8s0.4,4.6,0.4,8.6l0.1,13.9h-4.3v-27.3h5.2l10.9,14.8
	c2.1,2.9,5.1,7.5,5.1,7.5s-0.6-5-0.7-8.6l-0.1-13.7h4.3v27.3L275.5,244.4z"/>
<path class="st1" d="M350.2,217.2h4.3v27.3h-4.3V217.2z"/>
<path class="st1" d="M401.9,220.4H387v8.1h12.6v3.2H387v12.8h-4.4v-27.3h19.9L401.9,220.4z"/>
<path class="st1" d="M211.1,244.4v-27.3h20.1l-0.6,3.3h-15.2v8.1h12.9v3.3h-12.9v9.2h16.2v3.4L211.1,244.4z"/>
<path class="st1" d="M145.1,244.9c-9.1,0-15.9-5-15.9-13.9c0-9,7.6-14.4,16.2-14.4c3.1,0,6.4,1,8.6,2.4l-2.2,2.7
	c-1.9-1.1-4-1.8-6.3-1.8c-3.3,0-6.5,1-8.6,3.3c-1.8,1.9-2.8,4.5-2.8,8c0,3.8,1.2,5.9,3.2,8c2.1,2.1,5.3,2.6,8.4,2.6
	c2.5,0,5-0.9,6.9-1.9l2.1,2.6C152.5,243.8,148.7,244.9,145.1,244.9"/>
</svg>
