<?xml version="1.0" encoding="utf-8"?>
<!-- Generator: Adobe Illustrator 25.2.3, SVG Export Plug-In . SVG Version: 6.00 Build 0)  -->
<svg version="1.1" id="Layer_1" xmlns="http://www.w3.org/2000/svg" xmlns:xlink="http://www.w3.org/1999/xlink" x="0px" y="0px"
	 viewBox="0 0 330.96 216" style="enable-background:new 0 0 330.96 216;" xml:space="preserve">
<style type="text/css">
	.st0{fill:#FFFFFF;stroke:#355B7C;stroke-width:1.7305;stroke-linecap:round;}
	.st1{fill:#FFFFFF;stroke:#FFFFFF;stroke-width:1.7305;}
	.st2{fill:#005695;}
</style>
<path class="st0" d="M164.62,199.46"/>
<g>
	<g>
		<path class="st1" d="M164.62,107.79"/>
		<path class="st1" d="M164.77,108.19"/>
		<g>
			<polygon class="st2" points="73.54,137.25 56.3,137.25 56.3,110.97 37.86,110.97 37.86,137.25 20.6,137.25 20.6,79.63 
				37.86,79.63 37.86,99.88 56.3,99.88 56.3,79.63 73.54,79.63 			"/>
		</g>
		<g>
			<path class="st2" d="M103.09,125.56c0,6.26-0.59,10.89-1.73,13.98c-1.54,4.07-4.23,7.3-8.03,9.74c-3.84,2.4-8.17,3.57-13.05,3.51
				v-10.03c2.6-1.04,4.19-2.43,4.74-4.17c0.54-1.71,0.83-5.96,0.83-12.69V79.63h17.24V125.56z"/>
		</g>
		<g>
			<polygon class="st2" points="150.22,90.6 132.38,90.6 132.38,104.47 149.81,104.47 149.81,115.54 132.38,115.54 132.38,137.25 
				115.14,137.25 115.14,79.63 150.22,79.63 			"/>
		</g>
		<g>
			<path class="st2" d="M221.72,137.25h-16.45v-29.07c0-2.15,0.11-5.94,0.34-11.44c-0.86,3.4-2.05,7.23-3.54,11.44l-10.04,29.07
				h-7.34l-10.3-29.07c-1.07-3.11-2.28-6.97-3.54-11.51c0.18,4,0.29,7.85,0.29,11.51v29.07H157.6V79.63h20.49l12.11,35.31
				l11.68-35.31h19.84V137.25z"/>
		</g>
		<g>
			<path class="st2" d="M269.72,112c7.08-3.64,10.6-8.92,10.6-15.9c0-5.89-2.12-10.26-6.41-13.17c-2.18-1.49-5.02-2.47-8.47-2.96
				c-1.89-0.22-4.92-0.34-9.15-0.34h-22.39v57.62h17.24v-22.6h4.45l9.67,23.61l18.13-1.91L269.72,112z M261.78,103.27
				c-1.48,1.39-4.03,2.09-7.62,2.09h-3.02V89.81h3.19c3.34,0,5.65,0.4,6.97,1.25c1.81,1.13,2.69,3.17,2.69,6.11
				C263.98,99.86,263.25,101.91,261.78,103.27z"/>
		</g>
		<g>
			<g>
				<rect x="293.22" y="79.63" class="st2" width="15.39" height="57.75"/>
			</g>
		</g>
	</g>
	<g>
		<path class="st2" d="M245.9,144.88c-3.84,8.45-8.89,16.09-14.9,22.77c-1.05-3.1-3.64-6-7.53-8.6c1.97-4.43,3.7-9.14,5.11-14.17
			h-1.82c-1.33,4.68-2.94,9.09-4.77,13.23c-5.63-3.39-13.5-6.23-22.95-8.27c0.27-1.63,0.54-3.27,0.77-4.96h-1.75
			c-0.22,1.57-0.47,3.1-0.72,4.61c-8.62-1.74-18.46-2.83-29.05-3.1v-0.07c-0.71,0-1.42,0.01-2.13,0.02v-1.46h-2.82v1.44
			c-0.05,0-0.09,0-0.14,0v0.07c-11.2,0.28-21.58,1.48-30.56,3.4c-0.27-1.61-0.54-3.24-0.77-4.92h-1.7c0,0.05-0.04,0.09-0.04,0.14
			c0.25,1.76,0.53,3.47,0.81,5.16c-9.46,2.17-17.25,5.15-22.66,8.69c-1.48-3.27-2.9-6.92-4.07-10.52c-0.43,0.82-0.78,1.22-1.24,1.7
			c1.16,3.42,2.45,6.7,3.87,9.83c-3.84,2.82-6.2,5.97-6.76,9.32c-3.32-3.52-6.36-7.32-9.09-11.38c-1.13,0.42-2.28,0.79-3.47,1.1
			c16.91,25.74,45.81,41.71,77.3,41.71c36.8,0,70.08-21.8,84.8-55.53c0.03-0.07,0.03-0.14,0.05-0.21H245.9z M125.8,188.1
			c-8.99-4.39-17.2-10.24-24.26-17.37h0.15c0-3.31,2.11-6.45,5.87-9.29c4.87,10.19,11.2,18.58,18.58,24.88
			C125.98,186.9,125.87,187.5,125.8,188.1z M109,160.42c5.19-3.45,12.87-6.38,22.25-8.53c1.52,8.52,3.51,16.07,5.88,22.53
			c-5.04,2.74-8.68,6.24-10.38,10.13C119.71,178.4,113.67,170.26,109,160.42z M127.46,188.93c0.02-0.47,0.05-0.93,0.13-1.39
			c1.55,1.24,3.13,2.41,4.76,3.46C130.7,190.35,129.06,189.67,127.46,188.93z M142.82,194.34c-5.24-2.01-10.17-4.91-14.71-8.64
			c1.38-3.72,4.8-7.06,9.62-9.7c3.58,9.27,7.97,16.11,12.89,19.98C147.98,195.56,145.38,195,142.82,194.34z M163.35,197.11
			c-2.88-0.05-5.73-0.25-8.56-0.57c-5.9-2.91-11.26-10.36-15.5-21.35c6.36-3.1,14.77-5.05,24.05-5.23V197.11z M163.35,168.23
			c-9.45,0.18-18.03,2.19-24.62,5.4c-2.32-6.35-4.28-13.77-5.78-22.11c8.94-1.91,19.29-3.12,30.4-3.4V168.23z M166.17,148.07
			c11.24,0.17,21.76,1.29,30.88,3.13c-1.47,8.31-3.41,15.71-5.7,22.06c-6.84-3.01-15.6-4.87-25.18-5.04V148.07z M166.17,197.11
			v-27.16c9.42,0.16,18,1.97,24.61,4.87c-4.24,11.13-9.61,18.7-15.55,21.67C172.24,196.85,169.23,197.07,166.17,197.11z
			 M179.44,195.92c4.96-3.94,9.37-10.93,12.96-20.36c5.08,2.49,8.77,5.67,10.53,9.22c-4.63,3.99-9.67,7.14-15.06,9.3
			C185.1,194.82,182.29,195.45,179.44,195.92z M198.01,190.71c1.93-1.27,3.79-2.7,5.59-4.23c0.16,0.52,0.28,1.05,0.36,1.58
			C202.02,189.02,200.03,189.9,198.01,190.71z M192.97,174.02c2.33-6.46,4.29-13.98,5.79-22.46c9.34,2.02,17.11,4.8,22.54,8.09
			c-4.49,9.69-10.27,17.81-17.05,24C202.21,179.92,198.26,176.62,192.97,174.02z M205.61,187.22c-0.13-0.66-0.33-1.31-0.58-1.95
			c7.06-6.34,13.08-14.68,17.73-24.67c3.84,2.61,6.24,5.49,6.86,8.55C222.69,176.51,214.56,182.61,205.61,187.22z"/>
		<path class="st2" d="M83.79,71.52c4.13-9.11,9.67-17.28,16.31-24.32c0.56,3.35,2.92,6.49,6.76,9.32c-2.13,4.67-3.99,9.65-5.48,15
			h1.82c1.42-4.97,3.14-9.63,5.11-13.99c5.4,3.54,13.2,6.52,22.66,8.69c-0.29,1.69-0.56,3.4-0.81,5.16
			c-0.01,0.05,0.03,0.09,0.04,0.14h1.7c0.24-1.67,0.5-3.3,0.77-4.92c8.97,1.92,19.36,3.12,30.56,3.41v0.07c0.05,0,0.09,0,0.14,0
			v1.44h2.82v-1.46c0.71,0.01,1.41,0.02,2.13,0.02v-0.07c10.58-0.27,20.43-1.36,29.05-3.1c0.25,1.51,0.5,3.05,0.72,4.61h1.75
			c-0.24-1.69-0.5-3.33-0.77-4.96c9.44-2.04,17.31-4.88,22.95-8.27c1.83,4.15,3.44,8.55,4.77,13.23h1.82
			c-1.41-5.03-3.14-9.74-5.11-14.17c3.89-2.6,6.48-5.5,7.53-8.6c6.01,6.68,11.06,14.32,14.9,22.77h3.79
			c-0.02-0.07-0.02-0.14-0.05-0.21c-14.71-33.74-48-55.53-84.8-55.53c-36.79,0-70.08,21.8-84.79,55.53
			c-0.03,0.07-0.03,0.14-0.05,0.21H83.79z M205.61,29.17c8.95,4.61,17.08,10.71,24.02,18.08c-0.62,3.05-3.02,5.94-6.86,8.55
			c-4.65-9.99-10.67-18.33-17.73-24.67C205.28,30.49,205.48,29.83,205.61,29.17z M221.3,56.75c-5.43,3.29-13.2,6.07-22.54,8.09
			c-1.5-8.49-3.46-16.01-5.79-22.46c5.29-2.59,9.24-5.9,11.28-9.63C211.03,38.94,216.81,47.06,221.3,56.75z M203.97,28.33
			c-0.08,0.53-0.2,1.06-0.36,1.58c-1.81-1.53-3.66-2.96-5.59-4.23C200.03,26.49,202.02,27.38,203.97,28.33z M187.87,22.32
			c5.39,2.16,10.43,5.31,15.06,9.3c-1.76,3.55-5.45,6.73-10.53,9.22c-3.59-9.44-8-16.42-12.96-20.36
			C182.29,20.95,185.1,21.57,187.87,22.32z M166.17,19.28c3.05,0.05,6.07,0.26,9.06,0.62c5.94,2.97,11.32,10.53,15.55,21.67
			c-6.61,2.9-15.19,4.71-24.61,4.87V19.28z M166.17,48.17c9.59-0.16,18.35-2.02,25.18-5.04c2.29,6.35,4.23,13.75,5.7,22.06
			c-9.13,1.84-19.64,2.96-30.88,3.13V48.17z M163.35,68.28c-11.11-0.28-21.46-1.49-30.4-3.4c1.49-8.34,3.46-15.76,5.78-22.11
			c6.59,3.21,15.18,5.22,24.62,5.4V68.28z M163.35,19.29v27.15c-9.28-0.18-17.7-2.13-24.05-5.23c4.24-10.99,9.59-18.44,15.5-21.35
			C157.62,19.54,160.47,19.34,163.35,19.29z M150.62,20.41c-4.93,3.87-9.31,10.71-12.89,19.98c-4.81-2.64-8.23-5.98-9.62-9.7
			c4.54-3.73,9.47-6.63,14.71-8.64C145.38,21.4,147.98,20.83,150.62,20.41z M132.35,25.39c-1.63,1.05-3.21,2.22-4.76,3.46
			c-0.08-0.46-0.11-0.92-0.13-1.39C129.06,26.73,130.7,26.04,132.35,25.39z M137.13,41.98c-2.36,6.46-4.36,14-5.88,22.53
			c-9.38-2.15-17.07-5.09-22.25-8.53c4.67-9.84,10.71-17.99,17.75-24.13C128.45,35.74,132.09,39.24,137.13,41.98z M125.8,28.29
			c0.07,0.6,0.18,1.2,0.35,1.79c-7.38,6.3-13.71,14.69-18.58,24.88c-3.76-2.84-5.87-5.98-5.87-9.29h-0.15
			C108.6,38.54,116.81,32.68,125.8,28.29z"/>
	</g>
</g>
<g>
	<path class="st2" d="M312.78,77.47l0.8-0.07c0.04,0.32,0.13,0.58,0.26,0.78c0.14,0.2,0.35,0.37,0.64,0.5
		c0.29,0.13,0.62,0.19,0.98,0.19c0.32,0,0.61-0.05,0.85-0.14s0.43-0.23,0.55-0.39s0.18-0.35,0.18-0.55c0-0.2-0.06-0.37-0.17-0.52
		c-0.12-0.15-0.31-0.27-0.57-0.38c-0.17-0.07-0.55-0.17-1.13-0.31c-0.59-0.14-1-0.27-1.23-0.4c-0.3-0.16-0.53-0.36-0.68-0.59
		s-0.22-0.5-0.22-0.79c0-0.32,0.09-0.62,0.27-0.9s0.45-0.49,0.8-0.64c0.35-0.14,0.74-0.22,1.17-0.22c0.47,0,0.89,0.08,1.25,0.23
		c0.36,0.15,0.64,0.38,0.83,0.67c0.19,0.3,0.3,0.63,0.31,1L316.86,75c-0.04-0.4-0.19-0.71-0.44-0.91s-0.62-0.31-1.11-0.31
		c-0.51,0-0.88,0.09-1.12,0.28c-0.23,0.19-0.35,0.41-0.35,0.68c0,0.23,0.08,0.42,0.25,0.57c0.16,0.15,0.59,0.3,1.27,0.45
		c0.69,0.16,1.16,0.29,1.41,0.41c0.37,0.17,0.64,0.39,0.82,0.65c0.18,0.26,0.27,0.56,0.27,0.91c0,0.34-0.1,0.66-0.29,0.96
		c-0.19,0.3-0.47,0.53-0.84,0.7c-0.36,0.17-0.77,0.25-1.23,0.25c-0.58,0-1.06-0.08-1.45-0.25c-0.39-0.17-0.7-0.42-0.92-0.76
		C312.91,78.28,312.79,77.9,312.78,77.47z"/>
	<path class="st2" d="M318.98,79.52v-6.37h1.27l1.51,4.51c0.14,0.42,0.24,0.73,0.3,0.94c0.07-0.23,0.19-0.57,0.34-1.02l1.53-4.44
		h1.13v6.37h-0.81v-5.34l-1.85,5.34h-0.76l-1.84-5.43v5.43H318.98z"/>
</g>
</svg>
